<?xml version="1.0" encoding="utf-8"?>
<!-- Generator: Adobe Illustrator 26.5.0, SVG Export Plug-In . SVG Version: 6.00 Build 0)  -->
<svg version="1.1" id="Layer_1" xmlns="http://www.w3.org/2000/svg" xmlns:xlink="http://www.w3.org/1999/xlink" x="0px" y="0px"
	 viewBox="0 0 44.5 61.8" style="enable-background:new 0 0 44.5 61.8;" xml:space="preserve">
<polygon points="19,0 15,3.9 19,7.9 35.7,7.9 39.6,3.9 35.4,0 "/>
<polygon points="19,26.6 15,30.5 19,34.4 35.7,34.4 39.6,30.5 35.4,26.6 "/>
<polygon points="19,53.1 15,57 19,61 35.7,61 39.6,57 35.4,53.1 "/>
<polygon points="44.5,35.2 40.5,31.3 36.6,35.2 36.6,51.9 40.6,55.9 44.5,51.6 "/>
<polygon points="44.5,8.7 40.5,4.8 36.6,8.7 36.6,25.4 40.6,29.4 44.5,25.1 "/>
<polygon points="18,8.7 14,4.8 10.1,8.7 10.1,25.4 14,29.4 18,25.1 "/>
<polygon points="18,35.2 14,31.3 10.1,35.2 10.1,51.9 14,55.9 18,51.6 "/>
</svg>
